<svg width="30" height="30" viewBox="0 0 30 30" fill="none" xmlns="http://www.w3.org/2000/svg">
<path d="M12.5879 25.6286C12.5879 25.4453 12.5475 25.2642 12.4697 25.0982C12.3919 24.9322 12.2785 24.7854 12.1377 24.6681C11.9968 24.5508 11.8318 24.4659 11.6545 24.4195C11.4771 24.373 11.2917 24.3662 11.1115 24.3994C9.4751 24.6997 7.40906 24.7448 6.85974 23.2019C6.38075 22.0069 5.58733 20.9638 4.5636 20.1831C4.49056 20.1434 4.42094 20.0977 4.35547 20.0464C4.26588 19.81 4.10674 19.6064 3.89905 19.4624C3.69137 19.3183 3.44489 19.2406 3.19214 19.2395H3.18604C2.85554 19.2394 2.53845 19.3702 2.30418 19.6033C2.06991 19.8365 1.93754 20.1529 1.93604 20.4834C1.93115 21.5027 2.94979 22.1558 3.36304 22.3767C3.85034 22.8663 4.24198 23.4426 4.51782 24.0759C4.97315 25.3552 6.29639 27.2961 10.1001 27.0459C10.1013 27.0899 10.1025 27.1314 10.1031 27.1692L10.1086 27.5037C10.1086 27.8352 10.2403 28.1532 10.4748 28.3876C10.7092 28.622 11.0271 28.7537 11.3586 28.7537C11.6902 28.7537 12.0081 28.622 12.2425 28.3876C12.4769 28.1532 12.6086 27.8352 12.6086 27.5037L12.6025 27.1057C12.5964 26.8689 12.5879 26.5258 12.5879 25.6286ZM25.9216 6.72111C25.9613 6.56486 26.0004 6.39152 26.0346 6.19621C26.2367 4.8032 26.0605 3.38145 25.5243 2.07996C25.4566 1.91029 25.3527 1.75747 25.2197 1.63222C25.0868 1.50696 24.928 1.4123 24.7547 1.35487C24.3097 1.20472 22.6666 0.909312 19.5246 2.91737C16.9127 2.30274 14.1939 2.30274 11.5821 2.91737C8.45276 0.938724 6.81824 1.20722 6.37756 1.34882C6.19989 1.40392 6.0368 1.49808 5.90025 1.6244C5.76369 1.75071 5.65713 1.90598 5.58837 2.07882C5.04125 3.4053 4.86693 4.85604 5.08422 6.27437C5.11475 6.43429 5.1477 6.582 5.18189 6.71749C4.14635 8.09679 3.59477 9.77919 3.61267 11.5039C3.6093 11.8887 3.62703 12.2733 3.66578 12.6562C4.08328 18.4094 7.83327 20.1367 10.4462 20.73C10.3918 20.8862 10.3424 21.0534 10.2985 21.2304C10.2201 21.5521 10.2726 21.8916 10.4442 22.1746C10.6159 22.4577 10.8928 22.6611 11.2142 22.7403C11.5356 22.8195 11.8753 22.7679 12.1588 22.597C12.4423 22.4261 12.6464 22.1498 12.7264 21.8286C12.806 21.4121 13.0098 21.0295 13.3112 20.7312C13.4934 20.5717 13.6253 20.3626 13.6909 20.1295C13.7564 19.8964 13.7529 19.6493 13.6806 19.4182C13.6083 19.1871 13.4704 18.9819 13.2836 18.8278C13.0969 18.6736 12.8694 18.577 12.6288 18.5498C8.31116 18.0566 6.43676 16.2976 6.15479 12.4267C6.12355 12.1201 6.10949 11.812 6.11268 11.5039C6.09262 10.2747 6.49871 9.07647 7.26196 8.11276C7.33865 8.01229 7.42034 7.91573 7.50671 7.82345C7.65975 7.6522 7.76265 7.4421 7.8041 7.21621C7.84556 6.99031 7.82397 6.75737 7.74171 6.54294C7.65738 6.31735 7.59245 6.08498 7.54762 5.84835C7.44579 5.1755 7.47919 4.48909 7.64587 3.8293C8.73229 4.13614 9.75477 4.6356 10.6646 5.3039C10.8151 5.40412 10.9853 5.47081 11.1638 5.49945C11.3423 5.5281 11.5249 5.51803 11.6992 5.46992C14.2256 4.7843 16.8891 4.78473 19.4152 5.47117C19.5904 5.51923 19.774 5.52872 19.9532 5.49901C20.1325 5.4693 20.3031 5.40108 20.4534 5.29906C21.359 4.62798 22.3772 4.12406 23.46 3.81102C23.626 4.45497 23.6631 5.12534 23.5693 5.78367C23.524 6.0431 23.4533 6.29742 23.3581 6.54296C23.2758 6.75739 23.2543 6.99034 23.2957 7.21623C23.3372 7.44212 23.4401 7.65223 23.5931 7.82347C23.6895 7.93211 23.786 8.0493 23.8726 8.15916C24.6305 9.10656 25.0297 10.291 25 11.5039C25.0023 11.8284 24.9866 12.1528 24.953 12.4755C24.6777 16.2951 22.796 18.0554 18.4583 18.5498C18.2176 18.5772 17.99 18.6739 17.8033 18.8282C17.6166 18.9826 17.4788 19.1878 17.4065 19.419C17.3343 19.6502 17.3308 19.8975 17.3965 20.1306C17.4622 20.3638 17.5942 20.5728 17.7765 20.7324C18.0873 21.0387 18.2916 21.4366 18.3594 21.8676C18.4438 22.2023 18.4827 22.5468 18.4747 22.8918V25.8093C18.4625 26.6186 18.4625 27.2253 18.4625 27.5036C18.4625 27.8351 18.5942 28.1531 18.8286 28.3875C19.063 28.6219 19.381 28.7536 19.7125 28.7536C20.044 28.7536 20.362 28.6219 20.5964 28.3875C20.8308 28.1531 20.9625 27.8351 20.9625 27.5036C20.9625 27.2326 20.9625 26.6381 20.9747 25.8288V22.8918C20.9848 22.3391 20.9197 21.7876 20.7812 21.2524C20.7416 21.0767 20.6932 20.9032 20.636 20.7324C22.5375 20.4165 24.2653 19.4361 25.5117 17.9657C26.7582 16.4952 27.4424 14.6302 27.4426 12.7026C27.4838 12.3044 27.503 11.9042 27.5 11.5039C27.5277 9.77733 26.9716 8.09202 25.9216 6.72114L25.9216 6.72111Z" fill="#1C1C1C"/>
</svg>
