<svg width="27" height="30" viewBox="0 0 27 30" fill="none" xmlns="http://www.w3.org/2000/svg">
<path d="M0 0L2.36842 26.6798L13.4211 29.8186L24.4737 26.6798C25.2632 17.7868 26.0526 8.89301 26.8421 0H0ZM1.72389 1.5694H25.1182L22.9965 25.4675L13.421 28.1864L3.84559 25.4675L1.72389 1.5694ZM7.54009 6.27761L6.78145 15.694H17.0369L16.7131 19.6175L13.421 20.1034L10.1691 19.6175L10.0257 18.0481H6.97882L7.28721 21.9716L13.4133 23.541L19.5472 21.9716L20.3289 12.5552H10.3341L10.587 9.41641H17.1865L17.3684 10.9858H20.2889L19.7368 6.27761H7.54009Z" fill="#1C1C1C"/>
</svg>
