<svg width="27" height="27" viewBox="0 0 27 27" fill="none" xmlns="http://www.w3.org/2000/svg">
<path d="M16.1175 0.00529247C16.0542 0.0146138 15.9909 0.0332504 15.93 0.0612024C15.4144 0.315126 14.8284 1.06991 14.7159 1.21901C14.7089 1.22833 14.7019 1.23764 14.6972 1.24696C14.1183 2.10891 13.8089 3.11762 13.7972 4.16826C13.7902 4.95566 13.9448 5.73607 14.2589 6.48852C14.9902 8.23338 16.5089 9.67772 18.3159 10.3533C18.3769 10.3743 18.4355 10.3952 18.5409 10.4325C18.5503 10.4372 18.6394 10.4651 18.6534 10.4674L18.7191 10.4907C18.8128 10.521 18.9089 10.5513 19.0027 10.5699C19.4785 10.6655 19.9425 10.719 20.3785 10.733C20.4535 10.733 20.5285 10.7353 20.6035 10.7353C23.8917 10.7353 25.1667 8.42906 25.591 7.6603C25.6331 7.58575 25.6636 7.52519 25.6917 7.48791C25.6917 7.48558 25.6917 7.48558 25.6941 7.48326C25.8792 7.2107 25.8089 6.84029 25.5347 6.65393C25.2628 6.46989 24.8902 6.53978 24.7027 6.81234H24.7003C23.8238 8.09594 22.3238 8.48498 20.2449 7.97247C20.0902 7.9352 19.9214 7.87696 19.7714 7.82105C19.5746 7.75116 19.3777 7.66962 19.1949 7.5811C18.8316 7.40173 18.4894 7.1874 18.18 6.94979C16.3519 5.54039 15.637 2.60745 16.7058 0.913848C16.8488 0.687877 16.823 0.394354 16.6425 0.19634C16.5066 0.0472472 16.3097 -0.0203337 16.1175 0.00529247ZM10.8019 1.19338C10.6659 1.19105 10.5277 1.23531 10.4152 1.32849C9.50813 2.06231 8.58001 3.26437 8.54016 3.3133C8.53548 3.32262 8.53079 3.3296 8.52376 3.33893C6.88314 5.71277 6.75891 9.09066 8.20969 11.9444C8.43704 12.3963 8.69485 12.8273 8.96907 13.2233L9.0511 13.3398C9.28314 13.6776 9.54329 14.0597 9.8761 14.3578C9.99095 14.4883 10.1152 14.6141 10.237 14.7352L10.2956 14.7958L10.3449 14.8447C10.4691 14.9635 10.5956 15.0847 10.7269 15.2011H10.7292C10.7386 15.2151 10.7527 15.2244 10.7644 15.2361C10.912 15.3665 11.062 15.49 11.2613 15.6461L11.3152 15.6857C11.4699 15.8092 11.6269 15.9256 11.7886 16.0398C11.805 16.0514 11.8214 16.0631 11.8378 16.0747C11.8941 16.112 11.9503 16.147 12.0066 16.1866L12.0628 16.2238L12.1285 16.2658C12.248 16.345 12.3652 16.4172 12.5316 16.5127C12.6394 16.5779 12.7542 16.6432 12.8292 16.6804C12.862 16.6991 12.8972 16.7177 12.9792 16.762L13.162 16.8575C13.1714 16.8621 13.2136 16.8808 13.223 16.8854C13.3425 16.946 13.4667 17.0042 13.591 17.0602L13.7808 17.144C13.905 17.1976 14.0316 17.2489 14.1863 17.3071L14.2566 17.3327C14.2613 17.3374 14.3199 17.3583 14.3245 17.3607C14.437 17.4003 14.5519 17.4399 14.6667 17.4772L14.9292 17.5633C15.0605 17.6076 15.2128 17.6589 15.3792 17.6868C16.1972 17.8219 16.9917 17.8918 17.7441 17.8918C17.8331 17.8918 17.9222 17.8895 18.0089 17.8895C24.6324 17.7451 26.355 12.1517 26.3714 12.0958C26.4535 11.8139 26.3199 11.5134 26.0527 11.3876C25.7855 11.2618 25.4667 11.3504 25.3003 11.5926C23.6222 14.0294 20.4488 15.059 17.2167 14.2111C17.0667 14.1738 16.9214 14.1319 16.7409 14.0736C16.7105 14.0643 16.6847 14.055 16.6355 14.0364C16.53 14.0037 16.4269 13.9688 16.3097 13.9245L16.1433 13.8616C16.0472 13.8244 15.9511 13.7871 15.8339 13.7358L15.7566 13.7009C15.6136 13.6403 15.4753 13.5728 15.3511 13.5122L15.0089 13.3352C14.9316 13.2979 14.8636 13.256 14.7581 13.1931L14.6995 13.1604L14.641 13.1255C14.5542 13.0742 14.4675 13.0207 14.3878 12.9648L14.3316 12.9298C14.3269 12.9275 14.28 12.8949 14.2753 12.8902C14.205 12.846 14.137 12.8017 14.0714 12.7598C13.9261 12.6573 13.7831 12.5501 13.6167 12.4196L13.5511 12.3661C12.0042 11.1384 10.8605 9.49835 10.3238 7.73952C9.82455 6.12512 10.1949 4.01219 11.3152 2.08796C11.4605 1.83869 11.4066 1.52187 11.1839 1.3355C11.0738 1.24232 10.9378 1.19338 10.8019 1.19338ZM4.19954 2.9825C4.05657 2.9825 3.91126 3.03375 3.79642 3.13625C2.65032 4.15893 1.79251 5.48447 1.69876 5.63589C-0.7528 9.18384 -0.279358 14.698 1.40345 18.0689C1.43626 18.1388 1.47142 18.2063 1.50658 18.2739L1.53001 18.3111C1.56048 18.3787 1.59564 18.4486 1.60736 18.4626C1.62611 18.5068 1.65424 18.5557 1.66596 18.5697C1.69408 18.628 1.72221 18.6792 1.77377 18.7677L1.96596 19.0962C1.99408 19.1405 2.02221 19.1871 2.03158 19.2034C2.06908 19.2639 2.10893 19.3268 2.14877 19.3897L2.24252 19.5388C2.27065 19.5831 2.29877 19.6227 2.31752 19.646C2.41127 19.7904 2.50502 19.9349 2.60815 20.0723C2.61283 20.0793 2.61753 20.084 2.62221 20.0886L2.65971 20.1399C2.74409 20.261 2.83081 20.3775 2.90815 20.473L3.25033 20.904C3.25502 20.9086 3.29252 20.9529 3.29487 20.9575L3.34408 21.0135C3.44721 21.1393 3.55737 21.2651 3.66752 21.3862C3.68392 21.4048 3.70033 21.4211 3.71674 21.4398C3.82221 21.5539 3.93002 21.6681 4.04252 21.7869L4.15033 21.8894C4.2394 21.9826 4.32846 22.0734 4.42221 22.1596C4.42221 22.1619 4.46674 22.2039 4.46674 22.2039L4.56049 22.2901C4.67299 22.3972 4.79018 22.5044 4.87924 22.5789C4.88393 22.5859 4.96831 22.6581 4.97534 22.6628C5.08549 22.7606 5.19565 22.8538 5.30815 22.9447L5.88237 23.3966C5.97847 23.4665 6.0769 23.5364 6.1894 23.6179C6.2269 23.6459 6.26675 23.6738 6.30659 23.6995C6.32299 23.7134 6.34174 23.7274 6.35347 23.7344L6.78472 24.0209C6.94175 24.1235 7.09878 24.219 7.29097 24.3331L7.3941 24.3914C7.51363 24.4612 7.6355 24.5311 7.75035 24.5917C7.81831 24.629 7.88628 24.6616 7.94488 24.6919C8.02691 24.7361 8.11597 24.7851 8.25191 24.8503C8.26363 24.8573 8.35972 24.9039 8.37144 24.9085C8.50738 24.9761 8.64566 25.039 8.8191 25.1159C8.8191 25.1182 8.87535 25.1438 8.87535 25.1438C9.03473 25.2114 9.18941 25.2766 9.39331 25.3581C9.42613 25.3721 9.45894 25.3838 9.46597 25.3861C9.61128 25.442 9.76362 25.4979 9.88785 25.5422C9.89956 25.5468 9.96285 25.5725 9.97456 25.5771C10.141 25.633 10.305 25.6866 10.516 25.7519C10.5511 25.7635 10.5886 25.7751 10.5933 25.7751L10.7128 25.8124C10.8582 25.8567 11.0035 25.9033 11.1605 25.9336C12.2761 26.1362 13.366 26.2411 14.3972 26.2411H14.3996C22.9941 26.2411 25.7316 19.3665 25.7597 19.2966C25.8652 19.0194 25.7503 18.7072 25.4878 18.5628C25.23 18.4207 24.9019 18.4882 24.7191 18.7235C22.5136 21.6099 18.3535 22.6815 13.591 21.5935C13.4761 21.5656 13.3589 21.533 13.2441 21.498L13.0191 21.4305C12.8668 21.3839 12.7144 21.3326 12.5668 21.2814C12.5644 21.2814 12.4964 21.2558 12.4964 21.2558C12.3652 21.2115 12.2339 21.1602 12.1191 21.116L11.9878 21.0647C11.8425 21.0065 11.6972 20.9459 11.5566 20.883L11.4746 20.8481C11.348 20.7898 11.2261 20.7339 11.1043 20.6734C11.0949 20.6687 10.9988 20.6221 10.9894 20.6198C10.905 20.5779 10.8207 20.5336 10.7128 20.4754L10.223 20.2144C10.1738 20.1818 10.1222 20.1515 10.073 20.1259C9.92534 20.0351 9.77299 19.9442 9.62299 19.8487C9.58784 19.8277 9.55737 19.8044 9.49878 19.7648C9.39565 19.6996 9.29487 19.632 9.14721 19.5295L9.08862 19.4876C8.98783 19.4177 8.8894 19.3432 8.80737 19.2826C8.7558 19.2453 8.70424 19.2034 8.61987 19.1405C8.54487 19.0823 8.46987 19.0264 8.39955 18.9704L8.2683 18.8633C8.15815 18.7748 8.05502 18.6816 7.94721 18.5907C7.93314 18.5767 7.92142 18.5674 7.90502 18.5558C7.78549 18.4463 7.66362 18.3368 7.5183 18.1994L7.09408 17.78C6.99096 17.6752 6.88783 17.568 6.77065 17.4399C6.66283 17.3211 6.55971 17.2023 6.42143 17.0392L6.16831 16.7317C6.13784 16.6875 6.10503 16.6432 6.06519 16.5966C5.97847 16.4801 5.89175 16.366 5.80503 16.2449C3.47066 13.0487 2.86128 6.37675 4.68003 3.93302C4.86285 3.68841 4.83003 3.34364 4.60035 3.1363C4.48785 3.0338 4.34251 2.9825 4.19954 2.9825Z" fill="#1C1C1C"/>
</svg>
