<svg width="31" height="30" viewBox="0 0 31 30" fill="none" xmlns="http://www.w3.org/2000/svg">
<path d="M21.8225 0.00100797C21.569 0.00984108 21.3162 0.0755122 21.0898 0.193546C21.6803 0.484092 22.0968 1.05793 22.1653 1.73889C22.1771 1.82061 22.1845 1.89511 22.1845 1.93143V27.873C22.1845 28.6422 21.732 29.3014 21.0808 29.6172C21.3183 29.7463 21.5835 29.8186 21.8582 29.8186C22.1016 29.8186 22.3313 29.7626 22.5387 29.6679L22.54 29.6704C23.5892 29.1309 28.8348 26.4309 29.0279 26.3213C29.6367 25.9744 30.0143 25.3262 30.0143 24.6303V5.17414C30.0143 4.52689 29.6918 3.9248 29.1515 3.56292C28.9427 3.42219 22.5642 0.14669 22.5642 0.14669L22.563 0.149225C22.3307 0.0405948 22.076 -0.00782514 21.8225 0.00100797ZM20.227 1.28289C20.0601 1.28289 19.8929 1.3461 19.7657 1.47289C19.7657 1.47289 16.0305 5.64792 11.8951 10.2662L16.7849 14.2423L20.8795 10.8146V1.93142C20.8795 1.76539 20.8156 1.59935 20.6883 1.47288C20.5608 1.34609 20.394 1.28289 20.227 1.28289ZM3.91491 5.82266C3.81312 5.82266 3.62381 5.82303 2.77688 6.2128C2.31036 6.42746 0.685617 7.27554 0.685617 7.27554C0.470298 7.39163 0.296606 7.57335 0.174592 7.78348C0.224181 7.77569 0.273423 7.76827 0.32497 7.76827H0.326242C0.762102 7.76827 1.0294 8.07062 1.12401 8.16855C1.12401 8.16855 19.5288 28.0961 19.7657 28.3315C19.8929 28.458 20.0587 28.5215 20.2257 28.5215C20.3928 28.5215 20.5598 28.458 20.6871 28.3315C20.8143 28.2051 20.8795 28.039 20.8795 27.873V19.2279C20.8795 19.2279 4.91565 6.25947 4.79168 6.15959C4.55157 5.94298 4.23919 5.82266 3.91491 5.82266ZM0.129988 9.06536C0.0582146 9.06536 0 9.12384 0 9.19583V21.2622C0 21.3316 0.0569685 21.3889 0.127437 21.3889C0.163976 21.3889 0.196352 21.3724 0.219195 21.3471L3.91491 17.2696V12.9693L0.223019 9.10336C0.19953 9.08001 0.165875 9.06536 0.129988 9.06536ZM6.69051 16.079C6.69051 16.079 1.08218 22.3374 1.01823 22.401C0.841411 22.5767 0.597023 22.6847 0.326242 22.6847C0.275348 22.6847 0.226073 22.6785 0.177136 22.6708C0.308938 22.8984 0.502224 23.0861 0.741685 23.2015L0.739134 23.2053C1.3068 23.492 3.18017 24.438 3.42681 24.5378C3.5821 24.5995 3.74591 24.6303 3.9149 24.6303C4.14131 24.6303 4.36515 24.5722 4.56611 24.4581C4.58112 24.4496 10.1313 19.8081 10.1313 19.8081L6.69051 16.079Z" fill="#1C1C1C"/>
</svg>
